<svg width="672" height="168" viewBox="0 0 672 168" fill="none" xmlns="http://www.w3.org/2000/svg">
<path d="M672 119.461C672 128.221 669.85 136.265 665.549 143.592C661.248 150.759 655.435 156.493 648.108 160.794C640.94 165.094 632.976 167.245 624.216 167.245H510.967V143.353H624.216C630.746 143.353 636.321 141.043 640.94 136.424C645.719 131.646 648.108 125.991 648.108 119.461C648.108 112.93 645.719 107.355 640.94 102.736C636.321 97.9576 630.746 95.5684 624.216 95.5684H510.967V71.6763H600.324C606.854 71.6763 612.429 69.3667 617.048 64.7476C621.826 59.9692 624.216 54.3147 624.216 47.7842C624.216 41.2537 621.826 35.6789 617.048 31.0597C612.429 26.2813 606.854 23.8921 600.324 23.8921H499.021V167.245H475.129V0H600.324C609.084 0 617.048 2.15029 624.216 6.45087C631.543 10.7515 637.356 16.5652 641.657 23.8921C645.957 31.0597 648.108 39.0238 648.108 47.7842C648.108 52.7219 647.391 57.5003 645.957 62.1195C644.524 66.5793 642.533 70.7206 639.984 74.5434C649.382 77.729 657.027 83.4631 662.921 91.7457C668.974 99.869 672 109.107 672 119.461Z" fill="url(#paint0_linear_8_1731)"/>
<path d="M433.318 83.6224C433.318 95.2499 431.486 106.161 427.823 116.355C424.159 126.389 418.903 135.229 412.054 142.875C405.364 150.52 397.241 156.493 387.684 160.794C378.286 165.094 367.853 167.245 356.385 167.245H272.046V143.353H356.385C367.376 143.353 376.853 140.645 384.817 135.229C392.781 129.814 398.834 122.646 402.975 113.726C407.275 104.647 409.426 94.6127 409.426 83.6224C409.426 72.632 407.275 62.5973 402.975 53.5183C398.834 44.4393 392.781 37.2717 384.817 32.0154C376.853 26.5999 367.376 23.8921 356.385 23.8921H260.1V167.245H236.208V0H356.385C367.853 0 378.286 2.15029 387.684 6.45087C397.241 10.7515 405.364 16.8041 412.054 24.6089C418.903 32.2544 424.159 41.1741 427.823 51.368C431.486 61.4027 433.318 72.1542 433.318 83.6224Z" fill="url(#paint1_linear_8_1731)"/>
<path d="M197.158 119.461C197.158 128.221 195.007 136.265 190.707 143.592C186.406 150.759 180.592 156.493 173.265 160.794C166.098 165.094 158.134 167.245 149.373 167.245H36.1248V143.353H149.373C155.904 143.353 161.479 141.043 166.098 136.424C170.876 131.646 173.265 125.991 173.265 119.461C173.265 112.93 170.876 107.355 166.098 102.736C161.479 97.9576 155.904 95.5684 149.373 95.5684H36.1248V71.6763H125.481C132.012 71.6763 137.587 69.3667 142.206 64.7476C146.984 59.9692 149.373 54.3147 149.373 47.7842C149.373 41.2537 146.984 35.6789 142.206 31.0597C137.587 26.2813 132.012 23.8921 125.481 23.8921H24.1787V167.245H0.286621V0H125.481C134.242 0 142.206 2.15029 149.373 6.45087C156.7 10.7515 162.514 16.5652 166.815 23.8921C171.115 31.0597 173.265 39.0238 173.265 47.7842C173.265 52.7219 172.549 57.5003 171.115 62.1195C169.682 66.5793 167.691 70.7206 165.142 74.5434C174.54 77.729 182.185 83.4631 188.079 91.7457C194.131 99.869 197.158 109.107 197.158 119.461Z" fill="url(#paint2_linear_8_1731)"/>
<defs>
<linearGradient id="paint0_linear_8_1731" x1="573.564" y1="-3.09316e-08" x2="570.056" y2="148.744" gradientUnits="userSpaceOnUse">
<stop stop-color="#726ED8" stop-opacity="0.6"/>
<stop offset="1" stop-color="#726ED8" stop-opacity="0"/>
</linearGradient>
<linearGradient id="paint1_linear_8_1731" x1="334.763" y1="-3.09316e-08" x2="331.259" y2="148.744" gradientUnits="userSpaceOnUse">
<stop stop-color="#726ED8" stop-opacity="0.6"/>
<stop offset="1" stop-color="#726ED8" stop-opacity="0"/>
</linearGradient>
<linearGradient id="paint2_linear_8_1731" x1="98.7221" y1="-3.09316e-08" x2="95.214" y2="148.744" gradientUnits="userSpaceOnUse">
<stop stop-color="#726ED8" stop-opacity="0.6"/>
<stop offset="1" stop-color="#726ED8" stop-opacity="0"/>
</linearGradient>
</defs>
</svg>
